<?xml version="1.0" encoding="UTF-8"?><svg id="Layer_1" xmlns="http://www.w3.org/2000/svg" width="943.41" height="157.25" viewBox="0 0 943.41 157.25"><path d="M134.07,63.48h-1.72l-8.43-9.22c-14.53-15.9-35.08-24.96-56.63-24.96h-14.44l18.89,25.63c5.14,6.97,13.28,11.08,21.93,11.08v2.53h-30.38v48.04c0,25.38,11.36,25.38,25.38,25.38h7.53v2.53H0v-2.53h7.53c14.02,0,25.38,0,25.38-25.38v-62.57l-10.98-14.9C16.8,32.15,8.66,28.03,0,28.03H0v-2.53h111.24l22.83,37.98Z" style="fill:#fff;"/><path d="M272.08,106.52h1.72l-22.83,37.98H114.24v-2.53h7.53c14.02,0,25.38,0,25.38-25.38v-63.17c0-25.38-11.36-25.38-25.38-25.38h-7.53v-2.53h96.21v2.53h-7.53c-14.02,0-25.38,0-25.38,25.38v61.9c0,25.38,11.36,25.38,25.38,25.38h4.1c21.54,0,42.09-9.06,56.63-24.96l8.43-9.22h0Z" style="fill:#fff;"/><path d="M415.99,25.5v2.53h-6.61c-14.02,0-25.38,0-25.38,25.38v63.23c.02,25.33-15.83,27.86-23.42,27.86h-55.34c-7.59,0-23.44-2.53-23.42-27.86v-63.23c0-25.38-11.36-25.38-25.38-25.38h-7.53v-2.53h93.68v2.53h-5c-14.02,0-25.38,0-25.38,25.38v61.9c0,25.38,11.36,25.38,25.38,25.38h15.07c14.02,0,25.38,0,25.38-25.38v-61.9c0-25.38-11.36-25.38-25.38-25.38h-5v-2.53h68.36Z" style="fill:#fff;"/><path d="M549.93,106.52h1.72l-22.83,37.98h-82.75l-19.36-26.27c-5.14-6.97-13.28-11.08-21.93-11.08v-2.53c13.21,0,26.79-17.7,29.87-21.58l13.97-17.63-19.41-26.35c-5.14-6.93-13.26-11.02-21.89-11.02v-2.53h111.41l22.83,37.98h-1.72l-8.43-9.22c-14.53-15.9-35.08-24.96-56.63-24.96h-14.76l18.93,25.69c5.14,6.93,13.26,11.02,21.89,11.02v2.53h-47.15c-5.05,6.38-12.52,15.84-13.23,16.76l40.82,55.4h3.61c21.54,0,42.09-9.06,56.63-24.96l8.43-9.22h0Z" style="fill:#fff;"/><path d="M653.51,53.41v69.35l5.99,8.13c5.14,6.97,13.28,11.08,21.93,11.08v2.53h-49.9l-60.7-82.37v54.45c0,25.38,11.36,25.38,25.38,25.38h7.53v2.53h-71.81v-2.53h7.53c14.02,0,25.38,0,25.38-25.38v-62.57l-10.98-14.9c-5.14-6.97-13.28-11.08-21.93-11.08v-2.53h49.91l65.69,89.15v-61.23c0-25.38-11.36-25.38-25.38-25.38h-7.53v-2.53h71.81v2.53h-7.53c-14.02,0-25.38,0-25.38,25.38Z" style="fill:#fff;"/><path d="M808.8,106.52l-22.83,37.98h-89.24l-21.59-29.29c-10.14-13.76-9.81-32.6.8-46l34.62-43.71h79.93l12.06,16.36-19.69,24.85-15.49-21.01c-7.6-10.32-19.66-16.41-32.48-16.41h-1.2c-11.75,0-22.86,5.38-30.15,14.6l-7.88,9.97c-8.47,10.72-8.73,25.78-.62,36.77l36.89,50.06h10.1c21.54,0,42.09-9.06,56.63-24.96l8.43-9.22h1.71Z" style="fill:#fff;"/><path d="M880.78,75.66v40.92c0,25.38,11.36,25.38,25.38,25.38h7.53v2.53h-96.21v-2.53h7.53c14.02,0,25.38,0,25.38-25.38v-30.58l-34.56-46.89c-5.14-6.97-13.28-11.08-21.93-11.08v-2.53h49.91l33.41,45.34,13.85-17.48c20.05-25.32,17.43-25.32-5.93-25.32h-6.54v-2.53s64.81,0,64.81,0v2.53c-22.34,0-24.73,0-44.78,25.38l-17.85,22.25Z" style="fill:#fff;"/></svg>