<?xml version="1.0" encoding="UTF-8"?>
<svg id="Layer_1" data-name="Layer 1" xmlns="http://www.w3.org/2000/svg" width="969.25" height="458.35" viewBox="0 0 969.25 458.35">
  <defs>
    <style>
      .cls-1 {
        fill: #fff;
      }
    </style>
  </defs>
  <path class="cls-1" d="M237.61,170.95l-40.99,51.75H0v-3.9h11.61c21.6,0,39.12,0,39.12-39.12v-97.36c0-39.12-17.51-39.12-39.12-39.12H0v-3.9h194.09l44.75,60.75c15.63,21.21,15.12,50.25-1.23,70.9ZM202.27,129.91l-45.38-61.58c-8-10.78-19.17-18.54-31.71-22.38-6.55-2-13.84-.52-18.74,4.26-5.56,5.42-8.9,15.04-8.9,32.12v95.4c0,39.12,17.51,39.12,39.12,39.12h34.53c11.64,0,22.63-5.32,29.85-14.45,16.7-21.12,17.2-50.81,1.23-72.49Z"/>
  <path class="cls-1" d="M501.78,222.7h-76.9l-76.93-104.39-26.96,34.15h27.44l34.5,46.83h-58.56l-19.05-25.85c-.14-.19-.3-.37-.44-.56l-5.46,6.9c-30.9,39.02-27.53,39.02,9.14,39.02h10.08v3.9s-101.45,0-101.45,0v-3.9h1.57c33.41,0,38.11,0,69.02-39.12l10.78-13.45c-7.49-6.31-17.04-9.87-27.04-9.87v-3.9h38.09l33.1-41.26-37.53-50.92c-7.92-10.74-20.46-17.08-33.8-17.08v-3.9h76.91l119.69,162.42c7.91,10.74,20.46,17.08,33.8,17.08v3.9Z"/>
  <path class="cls-1" d="M728.74,218.8v3.9l-76.84.09-.06-.09h-.01l-44.86-60.88c-7.91-10.74-20.46-17.08-33.8-17.08v-3.9c20.35,0,41.29-27.28,46.03-33.25l9.73-12.29-19.7-26.73c-8.01-10.87-19.23-18.68-31.83-22.54-6.55-2.01-13.84-.52-18.75,4.26-5.56,5.42-8.9,15.04-8.9,32.12v97.36c0,39.12,17.51,39.12,39.12,39.12h11.61v3.9h-148.28v-3.9h11.61c21.6,0,39.12,0,39.12-39.12v-97.44c-.03-39.03-17.53-39.03-39.12-39.03h-11.61v-3.9h194.09l18.58,25.22-36.73,46.46,66.79,90.65c7.92,10.74,20.46,17.08,33.8,17.08Z"/>
  <path class="cls-1" d="M828.87,218.8h11.61v3.9h-148.28v-3.9h11.61c21.6,0,39.12,0,39.12-39.12v-97.44c-.03-39.03-17.53-39.03-39.12-39.03h-11.61v-3.9h148.28v3.9h-11.61c-21.6,0-39.12,0-39.12,39.12v97.35c0,39.12,17.51,39.12,39.12,39.12ZM890.86,82.32l-22.71,28.67,67.19,91.19c7.93,10.46,20.29,16.62,33.44,16.62v3.9h-76.91v-.04s-44.9-60.93-44.9-60.93c-7.91-10.74-20.46-17.08-33.8-17.08v-3.9c20.35,0,41.29-27.28,46.03-33.25l20.02-25.28c30.9-39.02,26.86-39.02-9.14-39.02h-10.08v-3.9s109.26,0,109.26,0v3.9h-9.37c-34.43,0-38.12,0-69.02,39.12Z"/>
  <path class="cls-1" d="M317.78,380.17h2.65l-35.18,58.53H74.54v-3.9h11.61c21.6,0,39.12,0,39.12-39.12v-97.36c0-39.12-17.51-39.12-39.12-39.12h-11.61v-3.9h148.28v3.9h-11.61c-21.6,0-39.12,0-39.12,39.12v95.4c0,39.12,17.51,39.12,39.12,39.12h6.32c33.2,0,64.87-13.96,87.27-38.47l12.99-14.21h0Z"/>
  <path class="cls-1" d="M516.59,438.7h-76.9l-76.93-104.38-26.96,34.15h27.44l34.5,46.83h-58.56l-19.05-25.85c-.14-.19-.3-.37-.44-.56l-5.46,6.9c-30.9,39.02-27.53,39.02,9.14,39.02h10.08v3.9s-101.45,0-101.45,0v-3.9h1.57c33.41,0,38.11,0,69.02-39.12l10.78-13.45c-7.49-6.31-17.04-9.87-27.04-9.87v-3.9h38.09l33.1-41.26-37.53-50.92c-7.92-10.74-20.46-17.08-33.8-17.08v-3.9h76.91l119.69,162.42c7.91,10.74,20.46,17.08,33.8,17.08v3.9Z"/>
  <path class="cls-1" d="M648.62,298.32v106.88l9.23,12.52c7.91,10.74,20.46,17.08,33.8,17.08v3.9h-76.91l-93.55-126.94v83.92c0,39.12,17.51,39.12,39.12,39.12h11.61v3.9h-110.67v-3.9h11.61c21.6,0,39.12,0,39.12-39.12v-96.43l-16.93-22.97c-7.91-10.74-20.46-17.08-33.8-17.08v-3.9h76.91l101.24,137.39v-94.37c0-39.12-17.51-39.12-39.12-39.12h-11.61v-3.9h110.67v3.9h-11.61c-21.61,0-39.12,0-39.12,39.12Z"/>
  <path class="cls-1" d="M868.68,372.4l20.42,27.71-23.2,38.59h-150.66l-33.27-45.14c-15.63-21.21-15.12-50.25,1.23-70.9l53.35-67.36h123.18l18.59,25.22-30.34,38.3-23.87-32.38c-11.72-15.9-30.3-25.29-50.05-25.29h-1.85c-18.12,0-35.24,8.29-46.47,22.5l-12.15,15.36c-13.06,16.51-13.45,39.72-.96,56.67l56.85,77.16h65.74c8.05,0,12.68-9.16,7.9-15.64l-31.97-43.37c-7.91-10.74-20.46-17.08-33.8-17.08v-3.9h115.16v3.9h-15.94c-8.05,0-12.68,9.16-7.9,15.64Z"/>
</svg>